# xmcd CD database file
#
# Track frame offsets:
#	150
#	43810
#	77418
#	95303
#	112143
#	133788
#
# Disc length: 2640 seconds
#
# Revision: 0
# Processed by: cddbd v1.5.2PL0 Copyright (c) Steve Scherf et al.
# Submitted via: CDex 1.51
#
DISCID=490a4e06
DTITLE=Shirley Scott with The Latin Jazz Quintet - Mucho Mucho
DYEAR=1900
DGENRE=Jazz
TTITLE0=Walkin'
TTITLE1=Tell Me
TTITLE2=I Get A Kick Out of You
TTITLE3=Muy Azul
TTITLE4=The Lady is A Tramp
TTITLE5=Mucho Mucho
EXTD=
EXTT0=
EXTT1=
EXTT2=
EXTT3=
EXTT4=
EXTT5=
PLAYORDER=
